<svg xmlns="http://www.w3.org/2000/svg" xmlns:xlink="http://www.w3.org/1999/xlink" width="500" zoomAndPan="magnify" viewBox="0 0 375 374.999991" height="500" preserveAspectRatio="xMidYMid meet" version="1.0"><defs><g/><clipPath id="1060756932"><path d="M 167 124 L 207 124 L 207 178 L 167 178 Z M 167 124 " clip-rule="nonzero"/></clipPath><clipPath id="24656ff17e"><path d="M 194.753906 124.605469 L 206.828125 131.890625 L 179.527344 177.128906 L 167.453125 169.839844 Z M 194.753906 124.605469 " clip-rule="nonzero"/></clipPath><clipPath id="3df91d35df"><path d="M 194.753906 124.605469 L 206.828125 131.890625 L 179.539062 177.109375 L 167.464844 169.820312 Z M 194.753906 124.605469 " clip-rule="nonzero"/></clipPath><clipPath id="d73c28aee1"><path d="M 168 131 L 196 131 L 196 159 L 168 159 Z M 168 131 " clip-rule="nonzero"/></clipPath><clipPath id="53a6d5c56b"><path d="M 178.839844 131.804688 L 195.296875 141.738281 L 185.171875 158.511719 L 168.714844 148.582031 Z M 178.839844 131.804688 " clip-rule="nonzero"/></clipPath><clipPath id="9379cc01ff"><path d="M 178.839844 131.804688 L 195.296875 141.738281 L 185.175781 158.5 L 168.722656 148.570312 Z M 178.839844 131.804688 " clip-rule="nonzero"/></clipPath><clipPath id="8b2204f85c"><path d="M 187 133 L 214 133 L 214 159 L 187 159 Z M 187 133 " clip-rule="nonzero"/></clipPath><clipPath id="d2eb6c244f"><path d="M 197.007812 133.59375 L 213.503906 143.550781 L 204.464844 158.527344 L 187.96875 148.570312 Z M 197.007812 133.59375 " clip-rule="nonzero"/></clipPath><clipPath id="53435beeb2"><path d="M 197.007812 133.59375 L 213.460938 143.527344 L 204.421875 158.5 L 187.96875 148.570312 Z M 197.007812 133.59375 " clip-rule="nonzero"/></clipPath></defs><g fill="#3d3b3a" fill-opacity="1"><g transform="translate(92.334345, 216.033384)"><g><path d="M 2.484375 -0.09375 C 6.421875 0.234375 8.3125 -0.015625 9.875 -0.703125 C 13.71875 -2.4375 13.53125 -6.40625 11.390625 -9.265625 C 10.34375 -10.65625 9.09375 -11.515625 7.59375 -11.953125 C 5.546875 -12.53125 3.609375 -12.1875 1.75 -10.921875 C 0.734375 -10.296875 0.328125 -9.65625 0.984375 -8.625 C 1 -3.46875 1.0625 -0.765625 1.140625 -0.546875 C 1.25 -0.328125 1.390625 -0.1875 1.5625 -0.140625 Z M 2.78125 -7.265625 C 2.796875 -8 2.828125 -8.71875 2.890625 -9.453125 C 4.21875 -10.328125 5.296875 -10.578125 6.703125 -10.1875 C 8.953125 -9.515625 10.796875 -7.25 10.765625 -5.015625 C 10.734375 -3.34375 9.78125 -2.28125 7.875 -1.84375 C 6.484375 -1.546875 5.078125 -1.546875 3.125 -1.890625 C 2.828125 -3.671875 2.75 -5.453125 2.78125 -7.265625 Z M 2.78125 -7.265625 "/></g></g></g><g fill="#3d3b3a" fill-opacity="1"><g transform="translate(112.627096, 216.033384)"><g><path d="M 15.015625 0.25 C 16.234375 0.234375 16.34375 0.28125 16.03125 -1.046875 L 15.34375 -3.25 L 12.546875 -11.453125 C 12.4375 -11.71875 11.0625 -12.71875 9.65625 -9.703125 C 9.46875 -9.28125 9 -8.140625 8.21875 -6.359375 L 8.09375 -6.578125 L 5.546875 -11.796875 C 5.40625 -12.109375 3.875 -13.09375 3.015625 -10.0625 C 2.84375 -9.546875 2.515625 -7.90625 1.78125 -5.265625 C 1 -2.390625 0.671875 -1.359375 0.671875 -0.75 C 0.671875 -0.265625 1.390625 0.0625 1.90625 -0.140625 C 2.484375 -0.359375 2.6875 -1.296875 2.75 -1.5625 C 3.203125 -3.90625 4.15625 -7.34375 4.609375 -8.796875 C 4.671875 -8.984375 4.890625 -9 4.984375 -8.796875 L 7.140625 -3.703125 C 7.296875 -3.453125 7.328125 -3.375 7.703125 -3.3125 C 8.46875 -3.203125 9.03125 -3.4375 9.421875 -4.359375 C 10.15625 -6.296875 10.921875 -7.484375 11.390625 -8.296875 C 11.46875 -8.453125 11.671875 -8.4375 11.71875 -8.265625 L 14.375 -0.265625 C 14.46875 0.0625 14.65625 0.25 15.015625 0.25 Z M 15.015625 0.25 "/></g></g></g><g fill="#3d3b3a" fill-opacity="1"><g transform="translate(136.189905, 216.033384)"><g><path d="M 1.546875 0.1875 C 2 0.234375 2.75 0.234375 2.75 -0.671875 C 2.75 -2.046875 2.8125 -2.109375 2.8125 -5.265625 C 2.8125 -7.078125 2.75 -9.515625 2.734375 -11.34375 C 2.734375 -11.640625 2.53125 -11.78125 2.140625 -11.84375 C 1.171875 -11.953125 0.671875 -11.578125 0.671875 -10.71875 C 0.671875 -9.625 0.703125 -8.125 0.75 -6.265625 C 0.84375 -4.0625 0.90625 -3.546875 0.90625 -2.8125 L 0.90625 -1.578125 C 0.90625 -1.484375 0.890625 -1.390625 0.890625 -0.890625 C 0.890625 -0.234375 1.109375 0.125 1.546875 0.1875 Z M 1.546875 0.1875 "/></g></g></g><g fill="#3d3b3a" fill-opacity="1"><g transform="translate(146.387414, 216.033384)"><g><path d="M 6.125 0.375 C 6.5 0.3125 6.703125 -0.125 6.6875 -0.40625 C 6.6875 -2.234375 6.703125 -4.53125 6.6875 -6.34375 C 6.640625 -8.578125 6.59375 -9.265625 6.5625 -9.96875 L 9.59375 -9.9375 C 10.4375 -9.796875 10.65625 -10.328125 10.65625 -10.71875 C 10.65625 -11.203125 10.296875 -11.5625 9.625 -11.6875 L 7.8125 -11.921875 C 5.875 -12.140625 3.921875 -12.109375 2.015625 -11.84375 C 1.171875 -11.6875 0.765625 -11.21875 0.6875 -10.765625 C 0.625 -10.46875 0.703125 -10.171875 0.890625 -10 C 1.25 -9.59375 2.203125 -9.671875 2.703125 -9.75 C 3.34375 -9.875 4 -9.921875 4.6875 -9.953125 L 4.734375 -8.75 C 4.75 -8.015625 4.671875 -7.515625 4.640625 -5.296875 C 4.625 -3.4375 4.609375 -1.46875 4.625 -0.390625 C 4.640625 0.484375 5.15625 0.5 6.125 0.375 Z M 6.125 0.375 "/></g></g></g><g fill="#3d3b3a" fill-opacity="1"><g transform="translate(164.433046, 216.033384)"><g><path d="M 2.921875 0.125 C 3.234375 0.03125 3.40625 -0.125 3.40625 -0.359375 C 3.40625 -0.703125 3.40625 -1.046875 3.296875 -1.703125 C 3.1875 -2.453125 3.1875 -2.90625 3.171875 -3.0625 L 3.890625 -3.0625 C 6.375 -3.0625 5.96875 -3 8.125 -0.859375 C 9.15625 0.171875 9.9375 0.375 10.203125 0.421875 C 10.5625 0.484375 11.5 0 10.546875 -0.90625 C 10.359375 -1.09375 9.234375 -1.90625 8.265625 -3.4375 L 8.5 -3.5 C 10.609375 -4.140625 11.671875 -5.3125 11.671875 -7.0625 C 11.671875 -8.203125 11.21875 -9.25 10.296875 -10.234375 C 8.21875 -12.484375 5.3125 -12.453125 2.46875 -10.84375 C 0.953125 -10 0.25 -9.09375 0.9375 -8.03125 C 1 -2.984375 1.109375 -0.390625 1.21875 -0.1875 C 1.546875 0.265625 2.5 0.28125 2.921875 0.125 Z M 2.859375 -9.125 C 4.046875 -10.046875 5.203125 -10.390625 6.34375 -10.15625 C 7.734375 -9.875 9.703125 -8.890625 9.703125 -7.328125 C 9.703125 -4.65625 5.8125 -4.34375 2.890625 -4.859375 C 2.796875 -6.171875 2.796875 -7.84375 2.859375 -9.125 Z M 2.859375 -9.125 "/></g></g></g><g fill="#3d3b3a" fill-opacity="1"><g transform="translate(183.484859, 216.033384)"><g><path d="M 1.546875 0.1875 C 2 0.234375 2.75 0.234375 2.75 -0.671875 C 2.75 -2.046875 2.8125 -2.109375 2.8125 -5.265625 C 2.8125 -7.078125 2.75 -9.515625 2.734375 -11.34375 C 2.734375 -11.640625 2.53125 -11.78125 2.140625 -11.84375 C 1.171875 -11.953125 0.671875 -11.578125 0.671875 -10.71875 C 0.671875 -9.625 0.703125 -8.125 0.75 -6.265625 C 0.84375 -4.0625 0.90625 -3.546875 0.90625 -2.8125 L 0.90625 -1.578125 C 0.90625 -1.484375 0.890625 -1.390625 0.890625 -0.890625 C 0.890625 -0.234375 1.109375 0.125 1.546875 0.1875 Z M 1.546875 0.1875 "/></g></g></g><g fill="#3d3b3a" fill-opacity="1"><g transform="translate(193.682368, 216.033384)"><g><path d="M 1.546875 0.1875 C 2 0.234375 2.75 0.234375 2.75 -0.671875 C 2.75 -2.046875 2.8125 -2.109375 2.8125 -5.265625 C 2.8125 -7.078125 2.75 -9.515625 2.734375 -11.34375 C 2.734375 -11.640625 2.53125 -11.78125 2.140625 -11.84375 C 1.171875 -11.953125 0.671875 -11.578125 0.671875 -10.71875 C 0.671875 -9.625 0.703125 -8.125 0.75 -6.265625 C 0.84375 -4.0625 0.90625 -3.546875 0.90625 -2.8125 L 0.90625 -1.578125 C 0.90625 -1.484375 0.890625 -1.390625 0.890625 -0.890625 C 0.890625 -0.234375 1.109375 0.125 1.546875 0.1875 Z M 1.546875 0.1875 "/></g></g></g><g fill="#3d3b3a" fill-opacity="1"><g transform="translate(203.879877, 216.033384)"><g/></g></g><g fill="#3d3b3a" fill-opacity="1"><g transform="translate(216.961744, 216.033384)"><g><path d="M 15.015625 0.25 C 16.234375 0.234375 16.34375 0.28125 16.03125 -1.046875 L 15.34375 -3.25 L 12.546875 -11.453125 C 12.4375 -11.71875 11.0625 -12.71875 9.65625 -9.703125 C 9.46875 -9.28125 9 -8.140625 8.21875 -6.359375 L 8.09375 -6.578125 L 5.546875 -11.796875 C 5.40625 -12.109375 3.875 -13.09375 3.015625 -10.0625 C 2.84375 -9.546875 2.515625 -7.90625 1.78125 -5.265625 C 1 -2.390625 0.671875 -1.359375 0.671875 -0.75 C 0.671875 -0.265625 1.390625 0.0625 1.90625 -0.140625 C 2.484375 -0.359375 2.6875 -1.296875 2.75 -1.5625 C 3.203125 -3.90625 4.15625 -7.34375 4.609375 -8.796875 C 4.671875 -8.984375 4.890625 -9 4.984375 -8.796875 L 7.140625 -3.703125 C 7.296875 -3.453125 7.328125 -3.375 7.703125 -3.3125 C 8.46875 -3.203125 9.03125 -3.4375 9.421875 -4.359375 C 10.15625 -6.296875 10.921875 -7.484375 11.390625 -8.296875 C 11.46875 -8.453125 11.671875 -8.4375 11.71875 -8.265625 L 14.375 -0.265625 C 14.46875 0.0625 14.65625 0.25 15.015625 0.25 Z M 15.015625 0.25 "/></g></g></g><g fill="#3d3b3a" fill-opacity="1"><g transform="translate(149.114262, 149.928648)"><g><path d="M 23.859375 0.328125 C 22.304688 0.328125 20.566406 0.242188 18.640625 0.078125 C 17.890625 0.0234375 16.960938 -0.0234375 15.859375 -0.078125 C 14.765625 -0.128906 13.550781 -0.15625 12.21875 -0.15625 L 6.90625 -0.078125 C 5.945312 -0.0234375 4.609375 0 2.890625 0 C 2.785156 0 2.734375 -0.160156 2.734375 -0.484375 C 2.734375 -0.804688 2.785156 -0.96875 2.890625 -0.96875 C 4.984375 -0.96875 6.523438 -1.097656 7.515625 -1.359375 C 8.503906 -1.628906 9.1875 -2.148438 9.5625 -2.921875 C 9.9375 -3.703125 10.125 -4.898438 10.125 -6.515625 L 10.125 -43.71875 C 10.125 -45.320312 9.945312 -46.5 9.59375 -47.25 C 9.25 -48 8.582031 -48.519531 7.59375 -48.8125 C 6.601562 -49.113281 5.0625 -49.265625 2.96875 -49.265625 C 2.863281 -49.265625 2.8125 -49.421875 2.8125 -49.734375 C 2.8125 -50.054688 2.863281 -50.21875 2.96875 -50.21875 L 6.90625 -50.140625 C 9.15625 -50.035156 10.925781 -49.984375 12.21875 -49.984375 C 14.09375 -49.984375 15.992188 -50.0625 17.921875 -50.21875 C 20.273438 -50.332031 21.878906 -50.390625 22.734375 -50.390625 C 28.359375 -50.390625 33.34375 -49.316406 37.6875 -47.171875 C 42.03125 -45.023438 45.390625 -42.101562 47.765625 -38.40625 C 50.148438 -34.707031 51.34375 -30.554688 51.34375 -25.953125 C 51.34375 -20.753906 50.097656 -16.160156 47.609375 -12.171875 C 45.117188 -8.179688 41.785156 -5.097656 37.609375 -2.921875 C 33.429688 -0.753906 28.847656 0.328125 23.859375 0.328125 Z M 23.0625 -0.71875 C 27.5625 -0.71875 31.550781 -1.628906 35.03125 -3.453125 C 38.519531 -5.273438 41.238281 -7.953125 43.1875 -11.484375 C 45.144531 -15.023438 46.125 -19.257812 46.125 -24.1875 C 46.125 -28.90625 45.195312 -33.164062 43.34375 -36.96875 C 41.5 -40.769531 38.847656 -43.78125 35.390625 -46 C 31.941406 -48.226562 27.96875 -49.34375 23.46875 -49.34375 C 21.101562 -49.34375 19.289062 -49.207031 18.03125 -48.9375 C 16.78125 -48.664062 15.859375 -48.113281 15.265625 -47.28125 C 14.679688 -46.457031 14.390625 -45.21875 14.390625 -43.5625 L 14.390625 -7.390625 C 14.390625 -5.785156 14.628906 -4.5 15.109375 -3.53125 C 15.585938 -2.570312 16.441406 -1.863281 17.671875 -1.40625 C 18.910156 -0.945312 20.707031 -0.71875 23.0625 -0.71875 Z M 23.0625 -0.71875 "/></g></g></g><g fill="#3d3b3a" fill-opacity="1"><g transform="translate(173.274899, 189.169223)"><g><path d="M 64.84375 -0.96875 C 65.007812 -0.96875 65.09375 -0.804688 65.09375 -0.484375 C 65.09375 -0.160156 65.007812 0 64.84375 0 C 63.1875 0 61.875 -0.0234375 60.90625 -0.078125 L 55.53125 -0.15625 L 50.546875 -0.078125 C 49.742188 -0.0234375 48.617188 0 47.171875 0 C 47.066406 0 47.015625 -0.160156 47.015625 -0.484375 C 47.015625 -0.804688 47.066406 -0.96875 47.171875 -0.96875 C 49.046875 -0.96875 50.425781 -1.113281 51.3125 -1.40625 C 52.195312 -1.695312 52.785156 -2.21875 53.078125 -2.96875 C 53.367188 -3.71875 53.460938 -4.898438 53.359375 -6.515625 L 52 -43.875 L 33.1875 -0.5625 C 33.082031 -0.34375 32.867188 -0.234375 32.546875 -0.234375 C 32.273438 -0.234375 32.035156 -0.34375 31.828125 -0.5625 L 12.21875 -43.5625 L 12.140625 -43.71875 L 11.484375 -8.359375 C 11.429688 -5.566406 11.882812 -3.632812 12.84375 -2.5625 C 13.8125 -1.5 15.609375 -0.96875 18.234375 -0.96875 C 18.347656 -0.96875 18.40625 -0.804688 18.40625 -0.484375 C 18.40625 -0.160156 18.347656 0 18.234375 0 C 16.734375 0 15.582031 -0.0234375 14.78125 -0.078125 L 10.453125 -0.15625 L 6.515625 -0.078125 C 5.816406 -0.0234375 4.769531 0 3.375 0 C 3.269531 0 3.21875 -0.160156 3.21875 -0.484375 C 3.21875 -0.804688 3.269531 -0.96875 3.375 -0.96875 C 5.625 -0.96875 7.21875 -1.515625 8.15625 -2.609375 C 9.09375 -3.710938 9.585938 -5.628906 9.640625 -8.359375 L 10.453125 -46.453125 C 8.785156 -48.328125 6.613281 -49.265625 3.9375 -49.265625 C 3.832031 -49.265625 3.78125 -49.421875 3.78125 -49.734375 C 3.78125 -50.054688 3.832031 -50.21875 3.9375 -50.21875 L 6.671875 -50.140625 C 7.203125 -50.085938 7.898438 -50.0625 8.765625 -50.0625 C 9.617188 -50.0625 10.335938 -50.085938 10.921875 -50.140625 C 11.515625 -50.191406 11.972656 -50.21875 12.296875 -50.21875 C 13.046875 -50.21875 13.632812 -49.960938 14.0625 -49.453125 C 14.488281 -48.953125 15.128906 -47.816406 15.984375 -46.046875 L 34.078125 -6.984375 L 52.078125 -48.21875 C 52.335938 -48.800781 52.695312 -49.28125 53.15625 -49.65625 C 53.613281 -50.03125 54.054688 -50.21875 54.484375 -50.21875 C 54.703125 -50.21875 55.050781 -50.191406 55.53125 -50.140625 C 56.007812 -50.085938 56.675781 -50.0625 57.53125 -50.0625 L 61.15625 -50.140625 C 61.6875 -50.191406 62.515625 -50.21875 63.640625 -50.21875 C 63.753906 -50.21875 63.8125 -50.054688 63.8125 -49.734375 C 63.8125 -49.421875 63.753906 -49.265625 63.640625 -49.265625 C 60.859375 -49.265625 58.890625 -48.898438 57.734375 -48.171875 C 56.585938 -47.453125 56.039062 -46.019531 56.09375 -43.875 L 57.625 -6.515625 C 57.675781 -4.847656 57.875 -3.640625 58.21875 -2.890625 C 58.570312 -2.140625 59.242188 -1.628906 60.234375 -1.359375 C 61.222656 -1.097656 62.757812 -0.96875 64.84375 -0.96875 Z M 64.84375 -0.96875 "/></g></g></g><g clip-path="url(#1060756932)"><g clip-path="url(#24656ff17e)"><g clip-path="url(#3df91d35df)"><path fill="#ffffff" d="M 194.753906 124.605469 L 206.828125 131.890625 L 179.527344 177.128906 L 167.453125 169.839844 Z M 194.753906 124.605469 " fill-opacity="1" fill-rule="nonzero"/></g></g></g><g clip-path="url(#d73c28aee1)"><g clip-path="url(#53a6d5c56b)"><g clip-path="url(#9379cc01ff)"><path fill="#ffffff" d="M 178.839844 131.804688 L 195.296875 141.738281 L 185.171875 158.511719 L 168.714844 148.582031 Z M 178.839844 131.804688 " fill-opacity="1" fill-rule="nonzero"/></g></g></g><g clip-path="url(#8b2204f85c)"><g clip-path="url(#d2eb6c244f)"><g clip-path="url(#53435beeb2)"><path fill="#ffffff" d="M 197.007812 133.59375 L 213.445312 143.515625 L 204.40625 158.492188 L 187.96875 148.570312 Z M 197.007812 133.59375 " fill-opacity="1" fill-rule="nonzero"/></g></g></g><path stroke-linecap="butt" transform="matrix(0.431053, -0.613753, 0.613753, 0.431053, 162.46394, 183.096742)" fill="none" stroke-linejoin="miter" d="M 0.000822678 1.000125 L 116.884887 0.999427 " stroke="#3d3b3a" stroke-width="2" stroke-opacity="1" stroke-miterlimit="4"/><g fill="#3d3b3a" fill-opacity="1"><g transform="translate(229.98502, 232.550354)"><g><path d="M 3.578125 -4.9375 C 4.015625 -4.9375 4.34375 -4.820312 4.5625 -4.59375 C 4.789062 -4.375 4.90625 -4.050781 4.90625 -3.625 C 4.90625 -3.476562 4.894531 -3.332031 4.875 -3.1875 C 4.78125 -2.625 4.582031 -2.097656 4.28125 -1.609375 C 3.976562 -1.117188 3.601562 -0.722656 3.15625 -0.421875 C 2.71875 -0.128906 2.273438 0.015625 1.828125 0.015625 C 1.691406 0.015625 1.523438 0.00390625 1.328125 -0.015625 L 0.921875 2.234375 C 0.890625 2.441406 0.875 2.566406 0.875 2.609375 C 0.875 2.734375 0.898438 2.820312 0.953125 2.875 C 1.015625 2.925781 1.113281 2.953125 1.25 2.953125 C 1.289062 2.953125 1.378906 2.945312 1.515625 2.9375 C 1.546875 2.9375 1.566406 2.957031 1.578125 3 C 1.585938 3.039062 1.578125 3.0625 1.546875 3.0625 L -0.84375 3.453125 C -0.863281 3.460938 -0.878906 3.441406 -0.890625 3.390625 C -0.910156 3.347656 -0.90625 3.320312 -0.875 3.3125 C -0.695312 3.269531 -0.570312 3.21875 -0.5 3.15625 C -0.425781 3.101562 -0.367188 3.019531 -0.328125 2.90625 C -0.285156 2.789062 -0.238281 2.597656 -0.1875 2.328125 L 0.890625 -3.703125 C 0.710938 -3.597656 0.5 -3.453125 0.25 -3.265625 C 0.238281 -3.253906 0.226562 -3.25 0.21875 -3.25 C 0.175781 -3.25 0.144531 -3.265625 0.125 -3.296875 C 0.113281 -3.335938 0.125 -3.367188 0.15625 -3.390625 C 0.5 -3.660156 0.757812 -3.851562 0.9375 -3.96875 L 1.09375 -4.859375 C 1.09375 -4.867188 1.164062 -4.914062 1.3125 -5 C 1.539062 -5.144531 1.734375 -5.28125 1.890625 -5.40625 C 2.054688 -5.53125 2.160156 -5.675781 2.203125 -5.84375 C 2.210938 -5.875 2.238281 -5.882812 2.28125 -5.875 C 2.332031 -5.863281 2.351562 -5.84375 2.34375 -5.8125 L 2.125 -4.609375 C 2.625 -4.828125 3.109375 -4.9375 3.578125 -4.9375 Z M 3.734375 -2.765625 C 3.753906 -2.921875 3.765625 -3.035156 3.765625 -3.109375 C 3.765625 -3.460938 3.679688 -3.753906 3.515625 -3.984375 C 3.347656 -4.210938 3.082031 -4.328125 2.71875 -4.328125 C 2.488281 -4.328125 2.269531 -4.296875 2.0625 -4.234375 L 1.40625 -0.546875 C 1.6875 -0.421875 1.984375 -0.359375 2.296875 -0.359375 C 2.691406 -0.359375 3.003906 -0.570312 3.234375 -1 C 3.472656 -1.4375 3.640625 -2.023438 3.734375 -2.765625 Z M 3.734375 -2.765625 "/></g></g></g><g fill="#3d3b3a" fill-opacity="1"><g transform="translate(238.850011, 232.550354)"><g><path d="M 1.984375 0.171875 C 1.429688 0.171875 1.007812 -0.00390625 0.71875 -0.359375 C 0.4375 -0.710938 0.296875 -1.175781 0.296875 -1.75 C 0.296875 -2 0.316406 -2.222656 0.359375 -2.421875 C 0.441406 -2.929688 0.617188 -3.378906 0.890625 -3.765625 C 1.171875 -4.160156 1.503906 -4.46875 1.890625 -4.6875 C 2.273438 -4.90625 2.6875 -5.015625 3.125 -5.015625 C 3.6875 -5.015625 4.117188 -4.84375 4.421875 -4.5 C 4.722656 -4.164062 4.875 -3.710938 4.875 -3.140625 C 4.875 -2.921875 4.847656 -2.679688 4.796875 -2.421875 C 4.679688 -1.867188 4.476562 -1.394531 4.1875 -1 C 3.90625 -0.613281 3.566406 -0.320312 3.171875 -0.125 C 2.785156 0.0703125 2.390625 0.171875 1.984375 0.171875 Z M 2.421875 -0.140625 C 2.679688 -0.140625 2.910156 -0.289062 3.109375 -0.59375 C 3.304688 -0.90625 3.453125 -1.332031 3.546875 -1.875 C 3.609375 -2.195312 3.640625 -2.53125 3.640625 -2.875 C 3.640625 -3.414062 3.554688 -3.859375 3.390625 -4.203125 C 3.222656 -4.546875 3 -4.71875 2.71875 -4.71875 C 2.46875 -4.71875 2.242188 -4.570312 2.046875 -4.28125 C 1.847656 -3.988281 1.695312 -3.550781 1.59375 -2.96875 C 1.539062 -2.644531 1.515625 -2.3125 1.515625 -1.96875 C 1.515625 -1.425781 1.59375 -0.984375 1.75 -0.640625 C 1.90625 -0.304688 2.128906 -0.140625 2.421875 -0.140625 Z M 2.421875 -0.140625 "/></g></g></g><g fill="#3d3b3a" fill-opacity="1"><g transform="translate(247.752715, 232.550354)"><g><path d="M 3.734375 -4.96875 C 3.953125 -4.96875 4.160156 -4.882812 4.359375 -4.71875 C 4.554688 -4.5625 4.640625 -4.382812 4.609375 -4.1875 C 4.585938 -4.0625 4.523438 -3.941406 4.421875 -3.828125 C 4.328125 -3.722656 4.203125 -3.671875 4.046875 -3.671875 C 3.898438 -3.671875 3.738281 -3.742188 3.5625 -3.890625 C 3.5 -3.929688 3.4375 -3.96875 3.375 -4 C 3.320312 -4.03125 3.265625 -4.046875 3.203125 -4.046875 C 3.066406 -4.046875 2.890625 -3.820312 2.671875 -3.375 C 2.460938 -2.9375 2.265625 -2.410156 2.078125 -1.796875 C 1.890625 -1.179688 1.753906 -0.632812 1.671875 -0.15625 C 1.648438 -0.0703125 1.582031 -0.0078125 1.46875 0.03125 C 1.351562 0.0703125 1.1875 0.09375 0.96875 0.09375 C 0.6875 0.09375 0.546875 0.0625 0.546875 0 C 0.554688 -0.0625 0.582031 -0.1875 0.625 -0.375 C 0.675781 -0.570312 0.71875 -0.757812 0.75 -0.9375 L 1.265625 -3.734375 C 1.285156 -3.867188 1.296875 -3.957031 1.296875 -4 C 1.296875 -4.238281 1.21875 -4.359375 1.0625 -4.359375 C 0.894531 -4.359375 0.660156 -4.1875 0.359375 -3.84375 C 0.347656 -3.84375 0.332031 -3.84375 0.3125 -3.84375 C 0.28125 -3.84375 0.253906 -3.851562 0.234375 -3.875 C 0.222656 -3.90625 0.226562 -3.9375 0.25 -3.96875 C 0.550781 -4.3125 0.820312 -4.5625 1.0625 -4.71875 C 1.300781 -4.882812 1.539062 -4.96875 1.78125 -4.96875 C 1.988281 -4.96875 2.140625 -4.910156 2.234375 -4.796875 C 2.328125 -4.679688 2.375 -4.515625 2.375 -4.296875 C 2.375 -4.171875 2.363281 -4.035156 2.34375 -3.890625 L 2.09375 -2.5 C 2.582031 -4.144531 3.128906 -4.96875 3.734375 -4.96875 Z M 3.734375 -4.96875 "/></g></g></g><g fill="#3d3b3a" fill-opacity="1"><g transform="translate(256.001821, 232.550354)"><g><path d="M 3.828125 -4.859375 C 3.878906 -4.859375 3.90625 -4.816406 3.90625 -4.734375 C 3.90625 -4.671875 3.859375 -4.570312 3.765625 -4.4375 C 3.671875 -4.300781 3.582031 -4.234375 3.5 -4.234375 C 3.46875 -4.234375 3.328125 -4.253906 3.078125 -4.296875 C 2.835938 -4.335938 2.5625 -4.367188 2.25 -4.390625 L 1.71875 -1.390625 C 1.707031 -1.253906 1.703125 -1.164062 1.703125 -1.125 C 1.703125 -0.914062 1.753906 -0.765625 1.859375 -0.671875 C 1.960938 -0.585938 2.125 -0.546875 2.34375 -0.546875 C 2.65625 -0.546875 3.003906 -0.695312 3.390625 -1 L 3.40625 -1 C 3.4375 -1 3.460938 -0.988281 3.484375 -0.96875 C 3.515625 -0.945312 3.519531 -0.921875 3.5 -0.890625 C 3.113281 -0.523438 2.769531 -0.257812 2.46875 -0.09375 C 2.175781 0.0703125 1.878906 0.15625 1.578125 0.15625 C 0.898438 0.15625 0.5625 -0.148438 0.5625 -0.765625 C 0.5625 -0.890625 0.578125 -1.03125 0.609375 -1.1875 L 1.09375 -3.84375 C 1.113281 -3.988281 1.125 -4.109375 1.125 -4.203125 C 1.125 -4.328125 1.09375 -4.410156 1.03125 -4.453125 C 0.96875 -4.492188 0.847656 -4.515625 0.671875 -4.515625 C 0.640625 -4.515625 0.625 -4.546875 0.625 -4.609375 C 0.625 -4.679688 0.640625 -4.71875 0.671875 -4.71875 C 1.335938 -4.71875 1.867188 -5.085938 2.265625 -5.828125 C 2.285156 -5.847656 2.316406 -5.859375 2.359375 -5.859375 C 2.398438 -5.859375 2.4375 -5.847656 2.46875 -5.828125 C 2.5 -5.816406 2.507812 -5.800781 2.5 -5.78125 L 2.3125 -4.75 C 2.550781 -4.757812 2.753906 -4.769531 2.921875 -4.78125 C 3.085938 -4.800781 3.226562 -4.8125 3.34375 -4.8125 C 3.5625 -4.84375 3.722656 -4.859375 3.828125 -4.859375 Z M 3.828125 -4.859375 "/></g></g></g><g fill="#3d3b3a" fill-opacity="1"><g transform="translate(263.559624, 232.550354)"><g><path d="M 4.078125 -9.125 C 4.421875 -9.125 4.691406 -9.0625 4.890625 -8.9375 C 5.085938 -8.820312 5.1875 -8.671875 5.1875 -8.484375 C 5.1875 -8.304688 5.128906 -8.160156 5.015625 -8.046875 C 4.898438 -7.941406 4.753906 -7.890625 4.578125 -7.890625 C 4.335938 -7.890625 4.175781 -7.941406 4.09375 -8.046875 C 4.019531 -8.160156 3.972656 -8.304688 3.953125 -8.484375 C 3.921875 -8.609375 3.890625 -8.703125 3.859375 -8.765625 C 3.828125 -8.835938 3.765625 -8.875 3.671875 -8.875 C 3.398438 -8.875 3.171875 -8.601562 2.984375 -8.0625 C 2.796875 -7.519531 2.617188 -6.671875 2.453125 -5.515625 L 2.34375 -4.78125 C 2.675781 -4.800781 2.914062 -4.816406 3.0625 -4.828125 L 3.53125 -4.859375 C 3.5625 -4.859375 3.585938 -4.835938 3.609375 -4.796875 C 3.628906 -4.765625 3.632812 -4.734375 3.625 -4.703125 C 3.59375 -4.617188 3.535156 -4.523438 3.453125 -4.421875 C 3.367188 -4.316406 3.289062 -4.265625 3.21875 -4.265625 C 3.195312 -4.265625 3.09375 -4.28125 2.90625 -4.3125 C 2.726562 -4.34375 2.523438 -4.367188 2.296875 -4.390625 L 1.59375 0.265625 C 1.476562 1.078125 1.332031 1.710938 1.15625 2.171875 C 0.988281 2.640625 0.78125 2.96875 0.53125 3.15625 C 0.28125 3.351562 -0.0390625 3.453125 -0.4375 3.453125 C -0.78125 3.453125 -1.050781 3.390625 -1.25 3.265625 C -1.457031 3.148438 -1.5625 3 -1.5625 2.8125 C -1.5625 2.632812 -1.503906 2.492188 -1.390625 2.390625 C -1.273438 2.285156 -1.140625 2.234375 -0.984375 2.234375 C -0.773438 2.234375 -0.632812 2.285156 -0.5625 2.390625 C -0.5 2.492188 -0.453125 2.640625 -0.421875 2.828125 C -0.390625 2.960938 -0.359375 3.054688 -0.328125 3.109375 C -0.304688 3.171875 -0.25 3.203125 -0.15625 3.203125 C -0.0703125 3.203125 -0.00390625 3.132812 0.046875 3 C 0.0976562 2.875 0.15625 2.644531 0.21875 2.3125 C 0.28125 1.976562 0.367188 1.40625 0.484375 0.59375 L 1.125 -3.84375 C 1.144531 -3.9375 1.15625 -4.046875 1.15625 -4.171875 C 1.15625 -4.328125 1.113281 -4.421875 1.03125 -4.453125 C 0.945312 -4.492188 0.773438 -4.515625 0.515625 -4.515625 C 0.492188 -4.515625 0.484375 -4.546875 0.484375 -4.609375 C 0.484375 -4.679688 0.492188 -4.71875 0.515625 -4.71875 C 0.796875 -4.71875 0.992188 -4.753906 1.109375 -4.828125 C 1.222656 -4.898438 1.296875 -5.039062 1.328125 -5.25 C 1.492188 -6.289062 1.6875 -7.082031 1.90625 -7.625 C 2.132812 -8.175781 2.414062 -8.5625 2.75 -8.78125 C 3.082031 -9.007812 3.523438 -9.125 4.078125 -9.125 Z M 4.078125 -9.125 "/></g></g></g><g fill="#3d3b3a" fill-opacity="1"><g transform="translate(270.702641, 232.550354)"><g><path d="M 1.984375 0.171875 C 1.429688 0.171875 1.007812 -0.00390625 0.71875 -0.359375 C 0.4375 -0.710938 0.296875 -1.175781 0.296875 -1.75 C 0.296875 -2 0.316406 -2.222656 0.359375 -2.421875 C 0.441406 -2.929688 0.617188 -3.378906 0.890625 -3.765625 C 1.171875 -4.160156 1.503906 -4.46875 1.890625 -4.6875 C 2.273438 -4.90625 2.6875 -5.015625 3.125 -5.015625 C 3.6875 -5.015625 4.117188 -4.84375 4.421875 -4.5 C 4.722656 -4.164062 4.875 -3.710938 4.875 -3.140625 C 4.875 -2.921875 4.847656 -2.679688 4.796875 -2.421875 C 4.679688 -1.867188 4.476562 -1.394531 4.1875 -1 C 3.90625 -0.613281 3.566406 -0.320312 3.171875 -0.125 C 2.785156 0.0703125 2.390625 0.171875 1.984375 0.171875 Z M 2.421875 -0.140625 C 2.679688 -0.140625 2.910156 -0.289062 3.109375 -0.59375 C 3.304688 -0.90625 3.453125 -1.332031 3.546875 -1.875 C 3.609375 -2.195312 3.640625 -2.53125 3.640625 -2.875 C 3.640625 -3.414062 3.554688 -3.859375 3.390625 -4.203125 C 3.222656 -4.546875 3 -4.71875 2.71875 -4.71875 C 2.46875 -4.71875 2.242188 -4.570312 2.046875 -4.28125 C 1.847656 -3.988281 1.695312 -3.550781 1.59375 -2.96875 C 1.539062 -2.644531 1.515625 -2.3125 1.515625 -1.96875 C 1.515625 -1.425781 1.59375 -0.984375 1.75 -0.640625 C 1.90625 -0.304688 2.128906 -0.140625 2.421875 -0.140625 Z M 2.421875 -0.140625 "/></g></g></g><g fill="#3d3b3a" fill-opacity="1"><g transform="translate(279.605346, 232.550354)"><g><path d="M 1.1875 0.109375 C 0.78125 0.109375 0.578125 -0.128906 0.578125 -0.609375 C 0.578125 -0.773438 0.59375 -0.945312 0.625 -1.125 L 1.78125 -7.40625 C 1.8125 -7.570312 1.828125 -7.710938 1.828125 -7.828125 C 1.828125 -8.066406 1.742188 -8.1875 1.578125 -8.1875 C 1.484375 -8.1875 1.3125 -8.128906 1.0625 -8.015625 L 1.046875 -8.015625 C 1.003906 -8.015625 0.976562 -8.035156 0.96875 -8.078125 C 0.957031 -8.128906 0.96875 -8.15625 1 -8.15625 L 2.953125 -9.125 L 2.984375 -9.125 C 3.015625 -9.125 3.046875 -9.109375 3.078125 -9.078125 C 3.109375 -9.054688 3.117188 -9.035156 3.109375 -9.015625 L 1.703125 -1.125 C 1.671875 -1 1.65625 -0.894531 1.65625 -0.8125 C 1.65625 -0.625 1.71875 -0.53125 1.84375 -0.53125 C 1.925781 -0.53125 2.019531 -0.566406 2.125 -0.640625 C 2.238281 -0.710938 2.367188 -0.820312 2.515625 -0.96875 C 2.535156 -0.988281 2.550781 -1 2.5625 -1 C 2.59375 -1 2.613281 -0.984375 2.625 -0.953125 C 2.644531 -0.921875 2.640625 -0.894531 2.609375 -0.875 C 2.328125 -0.53125 2.078125 -0.28125 1.859375 -0.125 C 1.640625 0.03125 1.414062 0.109375 1.1875 0.109375 Z M 1.1875 0.109375 "/></g></g></g><g fill="#3d3b3a" fill-opacity="1"><g transform="translate(286.484404, 232.550354)"><g><path d="M 2.171875 -6.28125 C 1.953125 -6.28125 1.773438 -6.34375 1.640625 -6.46875 C 1.515625 -6.601562 1.453125 -6.78125 1.453125 -7 C 1.453125 -7.207031 1.515625 -7.375 1.640625 -7.5 C 1.773438 -7.625 1.953125 -7.6875 2.171875 -7.6875 C 2.390625 -7.6875 2.5625 -7.625 2.6875 -7.5 C 2.8125 -7.375 2.875 -7.207031 2.875 -7 C 2.875 -6.769531 2.8125 -6.59375 2.6875 -6.46875 C 2.5625 -6.34375 2.390625 -6.28125 2.171875 -6.28125 Z M 1.328125 0.109375 C 0.929688 0.109375 0.734375 -0.125 0.734375 -0.59375 C 0.734375 -0.71875 0.753906 -0.894531 0.796875 -1.125 L 1.3125 -3.734375 C 1.332031 -3.847656 1.34375 -3.945312 1.34375 -4.03125 C 1.34375 -4.132812 1.320312 -4.210938 1.28125 -4.265625 C 1.238281 -4.328125 1.1875 -4.359375 1.125 -4.359375 C 0.945312 -4.359375 0.707031 -4.1875 0.40625 -3.84375 C 0.394531 -3.84375 0.378906 -3.84375 0.359375 -3.84375 C 0.328125 -3.84375 0.300781 -3.851562 0.28125 -3.875 C 0.269531 -3.90625 0.273438 -3.9375 0.296875 -3.96875 C 0.585938 -4.3125 0.851562 -4.5625 1.09375 -4.71875 C 1.34375 -4.882812 1.585938 -4.96875 1.828125 -4.96875 C 2.222656 -4.96875 2.421875 -4.75 2.421875 -4.3125 C 2.421875 -4.164062 2.40625 -4.023438 2.375 -3.890625 L 1.84375 -1.125 C 1.832031 -1.039062 1.828125 -0.941406 1.828125 -0.828125 C 1.828125 -0.628906 1.890625 -0.53125 2.015625 -0.53125 C 2.097656 -0.53125 2.191406 -0.566406 2.296875 -0.640625 C 2.398438 -0.710938 2.523438 -0.820312 2.671875 -0.96875 C 2.691406 -0.988281 2.710938 -1 2.734375 -1 C 2.753906 -1 2.769531 -0.984375 2.78125 -0.953125 C 2.800781 -0.921875 2.800781 -0.894531 2.78125 -0.875 C 2.5 -0.53125 2.242188 -0.28125 2.015625 -0.125 C 1.796875 0.03125 1.566406 0.109375 1.328125 0.109375 Z M 1.328125 0.109375 "/></g></g></g><g fill="#3d3b3a" fill-opacity="1"><g transform="translate(293.363461, 232.550354)"><g><path d="M 1.984375 0.171875 C 1.429688 0.171875 1.007812 -0.00390625 0.71875 -0.359375 C 0.4375 -0.710938 0.296875 -1.175781 0.296875 -1.75 C 0.296875 -2 0.316406 -2.222656 0.359375 -2.421875 C 0.441406 -2.929688 0.617188 -3.378906 0.890625 -3.765625 C 1.171875 -4.160156 1.503906 -4.46875 1.890625 -4.6875 C 2.273438 -4.90625 2.6875 -5.015625 3.125 -5.015625 C 3.6875 -5.015625 4.117188 -4.84375 4.421875 -4.5 C 4.722656 -4.164062 4.875 -3.710938 4.875 -3.140625 C 4.875 -2.921875 4.847656 -2.679688 4.796875 -2.421875 C 4.679688 -1.867188 4.476562 -1.394531 4.1875 -1 C 3.90625 -0.613281 3.566406 -0.320312 3.171875 -0.125 C 2.785156 0.0703125 2.390625 0.171875 1.984375 0.171875 Z M 2.421875 -0.140625 C 2.679688 -0.140625 2.910156 -0.289062 3.109375 -0.59375 C 3.304688 -0.90625 3.453125 -1.332031 3.546875 -1.875 C 3.609375 -2.195312 3.640625 -2.53125 3.640625 -2.875 C 3.640625 -3.414062 3.554688 -3.859375 3.390625 -4.203125 C 3.222656 -4.546875 3 -4.71875 2.71875 -4.71875 C 2.46875 -4.71875 2.242188 -4.570312 2.046875 -4.28125 C 1.847656 -3.988281 1.695312 -3.550781 1.59375 -2.96875 C 1.539062 -2.644531 1.515625 -2.3125 1.515625 -1.96875 C 1.515625 -1.425781 1.59375 -0.984375 1.75 -0.640625 C 1.90625 -0.304688 2.128906 -0.140625 2.421875 -0.140625 Z M 2.421875 -0.140625 "/></g></g></g></svg>