<svg xmlns="http://www.w3.org/2000/svg" xmlns:xlink="http://www.w3.org/1999/xlink" width="200" zoomAndPan="magnify" viewBox="0 0 150 149.999998" height="200" preserveAspectRatio="xMidYMid meet" version="1.0"><defs><g/><clipPath id="26f47e35f8"><path d="M 53 50 L 80 50 L 80 86 L 53 86 Z M 53 50 " clip-rule="nonzero"/></clipPath><clipPath id="32a715cd28"><path d="M 71.355469 50.789062 L 79.253906 55.554688 L 61.398438 85.132812 L 53.503906 80.367188 Z M 71.355469 50.789062 " clip-rule="nonzero"/></clipPath><clipPath id="3a8edf0e9b"><path d="M 71.355469 50.789062 L 79.253906 55.554688 L 61.40625 85.121094 L 53.511719 80.355469 Z M 71.355469 50.789062 " clip-rule="nonzero"/></clipPath><clipPath id="19309ce3d3"><path d="M 54 55 L 72 55 L 72 73 L 54 73 Z M 54 55 " clip-rule="nonzero"/></clipPath><clipPath id="584bc0dac4"><path d="M 60.953125 55.5 L 71.710938 61.992188 L 65.089844 72.960938 L 54.332031 66.46875 Z M 60.953125 55.5 " clip-rule="nonzero"/></clipPath><clipPath id="4ad30a722d"><path d="M 60.953125 55.5 L 71.710938 61.992188 L 65.097656 72.953125 L 54.335938 66.460938 Z M 60.953125 55.5 " clip-rule="nonzero"/></clipPath><clipPath id="2132a54df4"><path d="M 66 56 L 84 56 L 84 73 L 66 73 Z M 66 56 " clip-rule="nonzero"/></clipPath><clipPath id="8ffc2e289c"><path d="M 72.832031 56.667969 L 83.621094 63.179688 L 77.710938 72.972656 L 66.921875 66.460938 Z M 72.832031 56.667969 " clip-rule="nonzero"/></clipPath><clipPath id="b432fdae53"><path d="M 72.832031 56.667969 L 83.59375 63.164062 L 77.683594 72.957031 L 66.921875 66.460938 Z M 72.832031 56.667969 " clip-rule="nonzero"/></clipPath></defs><g fill="#3d3b3a" fill-opacity="1"><g transform="translate(4.383672, 110.577286)"><g><path d="M 1.625 -0.0625 C 4.203125 0.15625 5.4375 -0.015625 6.453125 -0.453125 C 8.96875 -1.59375 8.859375 -4.1875 7.453125 -6.0625 C 6.765625 -6.96875 5.9375 -7.53125 4.96875 -7.828125 C 3.625 -8.1875 2.359375 -7.96875 1.140625 -7.140625 C 0.484375 -6.734375 0.21875 -6.3125 0.640625 -5.640625 C 0.65625 -2.265625 0.6875 -0.5 0.75 -0.359375 C 0.828125 -0.21875 0.90625 -0.125 1.015625 -0.09375 Z M 1.828125 -4.75 C 1.828125 -5.234375 1.859375 -5.703125 1.890625 -6.1875 C 2.765625 -6.75 3.46875 -6.921875 4.390625 -6.671875 C 5.859375 -6.234375 7.0625 -4.734375 7.046875 -3.28125 C 7.015625 -2.1875 6.390625 -1.484375 5.15625 -1.203125 C 4.25 -1.015625 3.328125 -1.015625 2.046875 -1.234375 C 1.859375 -2.40625 1.796875 -3.5625 1.828125 -4.75 Z M 1.828125 -4.75 "/></g></g></g><g fill="#3d3b3a" fill-opacity="1"><g transform="translate(17.653523, 110.577286)"><g><path d="M 9.828125 0.171875 C 10.625 0.15625 10.6875 0.1875 10.484375 -0.6875 L 10.03125 -2.125 L 8.203125 -7.484375 C 8.140625 -7.671875 7.234375 -8.328125 6.3125 -6.34375 C 6.203125 -6.078125 5.890625 -5.328125 5.375 -4.15625 L 5.296875 -4.296875 L 3.625 -7.71875 C 3.53125 -7.921875 2.53125 -8.5625 1.96875 -6.578125 C 1.859375 -6.234375 1.640625 -5.171875 1.15625 -3.4375 C 0.65625 -1.5625 0.4375 -0.890625 0.4375 -0.5 C 0.4375 -0.171875 0.90625 0.046875 1.25 -0.09375 C 1.625 -0.234375 1.75 -0.84375 1.796875 -1.015625 C 2.09375 -2.5625 2.71875 -4.796875 3.015625 -5.765625 C 3.0625 -5.875 3.203125 -5.890625 3.25 -5.765625 L 4.671875 -2.421875 C 4.765625 -2.265625 4.796875 -2.203125 5.03125 -2.171875 C 5.546875 -2.09375 5.90625 -2.25 6.171875 -2.859375 C 6.640625 -4.125 7.140625 -4.890625 7.453125 -5.421875 C 7.5 -5.53125 7.640625 -5.515625 7.671875 -5.40625 L 9.40625 -0.171875 C 9.46875 0.046875 9.59375 0.171875 9.828125 0.171875 Z M 9.828125 0.171875 "/></g></g></g><g fill="#3d3b3a" fill-opacity="1"><g transform="translate(33.061732, 110.577286)"><g><path d="M 1.015625 0.125 C 1.3125 0.15625 1.796875 0.15625 1.796875 -0.4375 C 1.796875 -1.34375 1.84375 -1.375 1.84375 -3.4375 C 1.84375 -4.625 1.796875 -6.234375 1.78125 -7.421875 C 1.78125 -7.609375 1.65625 -7.71875 1.40625 -7.75 C 0.765625 -7.828125 0.4375 -7.578125 0.4375 -7.015625 C 0.4375 -6.296875 0.453125 -5.3125 0.5 -4.109375 C 0.546875 -2.65625 0.59375 -2.328125 0.59375 -1.84375 L 0.59375 -1.03125 C 0.59375 -0.96875 0.578125 -0.90625 0.578125 -0.578125 C 0.578125 -0.15625 0.71875 0.078125 1.015625 0.125 Z M 1.015625 0.125 "/></g></g></g><g fill="#3d3b3a" fill-opacity="1"><g transform="translate(39.730095, 110.577286)"><g><path d="M 4 0.234375 C 4.25 0.203125 4.390625 -0.078125 4.375 -0.265625 C 4.375 -1.453125 4.390625 -2.96875 4.375 -4.140625 C 4.34375 -5.609375 4.3125 -6.0625 4.28125 -6.53125 L 6.28125 -6.5 C 6.828125 -6.40625 6.96875 -6.75 6.96875 -7.015625 C 6.96875 -7.328125 6.734375 -7.5625 6.296875 -7.640625 L 5.109375 -7.796875 C 3.84375 -7.9375 2.5625 -7.921875 1.3125 -7.75 C 0.765625 -7.640625 0.5 -7.34375 0.453125 -7.046875 C 0.40625 -6.84375 0.453125 -6.65625 0.578125 -6.53125 C 0.828125 -6.28125 1.4375 -6.328125 1.765625 -6.390625 C 2.1875 -6.453125 2.625 -6.5 3.078125 -6.515625 L 3.09375 -5.71875 C 3.109375 -5.25 3.0625 -4.90625 3.03125 -3.46875 C 3.03125 -2.25 3.015625 -0.96875 3.03125 -0.25 C 3.03125 0.3125 3.375 0.328125 4 0.234375 Z M 4 0.234375 "/></g></g></g><g fill="#3d3b3a" fill-opacity="1"><g transform="translate(51.530507, 110.577286)"><g><path d="M 1.90625 0.078125 C 2.109375 0.015625 2.234375 -0.078125 2.234375 -0.234375 C 2.234375 -0.453125 2.234375 -0.6875 2.15625 -1.125 C 2.078125 -1.59375 2.078125 -1.890625 2.078125 -2 L 2.546875 -2 C 4.171875 -2 3.90625 -1.96875 5.3125 -0.5625 C 5.984375 0.109375 6.5 0.234375 6.6875 0.28125 C 6.90625 0.3125 7.53125 0 6.90625 -0.59375 C 6.78125 -0.71875 6.046875 -1.25 5.40625 -2.25 L 5.5625 -2.296875 C 6.9375 -2.703125 7.640625 -3.484375 7.640625 -4.625 C 7.640625 -5.359375 7.34375 -6.0625 6.734375 -6.6875 C 5.375 -8.171875 3.484375 -8.15625 1.609375 -7.09375 C 0.625 -6.53125 0.171875 -5.9375 0.609375 -5.25 C 0.65625 -1.953125 0.71875 -0.25 0.796875 -0.125 C 1.015625 0.171875 1.640625 0.1875 1.90625 0.078125 Z M 1.875 -5.96875 C 2.640625 -6.5625 3.40625 -6.796875 4.140625 -6.640625 C 5.0625 -6.453125 6.34375 -5.8125 6.34375 -4.796875 C 6.34375 -3.046875 3.8125 -2.84375 1.890625 -3.1875 C 1.828125 -4.03125 1.828125 -5.140625 1.875 -5.96875 Z M 1.875 -5.96875 "/></g></g></g><g fill="#3d3b3a" fill-opacity="1"><g transform="translate(63.988884, 110.577286)"><g><path d="M 1.015625 0.125 C 1.3125 0.15625 1.796875 0.15625 1.796875 -0.4375 C 1.796875 -1.34375 1.84375 -1.375 1.84375 -3.4375 C 1.84375 -4.625 1.796875 -6.234375 1.78125 -7.421875 C 1.78125 -7.609375 1.65625 -7.71875 1.40625 -7.75 C 0.765625 -7.828125 0.4375 -7.578125 0.4375 -7.015625 C 0.4375 -6.296875 0.453125 -5.3125 0.5 -4.109375 C 0.546875 -2.65625 0.59375 -2.328125 0.59375 -1.84375 L 0.59375 -1.03125 C 0.59375 -0.96875 0.578125 -0.90625 0.578125 -0.578125 C 0.578125 -0.15625 0.71875 0.078125 1.015625 0.125 Z M 1.015625 0.125 "/></g></g></g><g fill="#3d3b3a" fill-opacity="1"><g transform="translate(70.657246, 110.577286)"><g><path d="M 1.015625 0.125 C 1.3125 0.15625 1.796875 0.15625 1.796875 -0.4375 C 1.796875 -1.34375 1.84375 -1.375 1.84375 -3.4375 C 1.84375 -4.625 1.796875 -6.234375 1.78125 -7.421875 C 1.78125 -7.609375 1.65625 -7.71875 1.40625 -7.75 C 0.765625 -7.828125 0.4375 -7.578125 0.4375 -7.015625 C 0.4375 -6.296875 0.453125 -5.3125 0.5 -4.109375 C 0.546875 -2.65625 0.59375 -2.328125 0.59375 -1.84375 L 0.59375 -1.03125 C 0.59375 -0.96875 0.578125 -0.90625 0.578125 -0.578125 C 0.578125 -0.15625 0.71875 0.078125 1.015625 0.125 Z M 1.015625 0.125 "/></g></g></g><g fill="#3d3b3a" fill-opacity="1"><g transform="translate(77.325609, 110.577286)"><g/></g></g><g fill="#3d3b3a" fill-opacity="1"><g transform="translate(85.880113, 110.577286)"><g><path d="M 9.828125 0.171875 C 10.625 0.15625 10.6875 0.1875 10.484375 -0.6875 L 10.03125 -2.125 L 8.203125 -7.484375 C 8.140625 -7.671875 7.234375 -8.328125 6.3125 -6.34375 C 6.203125 -6.078125 5.890625 -5.328125 5.375 -4.15625 L 5.296875 -4.296875 L 3.625 -7.71875 C 3.53125 -7.921875 2.53125 -8.5625 1.96875 -6.578125 C 1.859375 -6.234375 1.640625 -5.171875 1.15625 -3.4375 C 0.65625 -1.5625 0.4375 -0.890625 0.4375 -0.5 C 0.4375 -0.171875 0.90625 0.046875 1.25 -0.09375 C 1.625 -0.234375 1.75 -0.84375 1.796875 -1.015625 C 2.09375 -2.5625 2.71875 -4.796875 3.015625 -5.765625 C 3.0625 -5.875 3.203125 -5.890625 3.25 -5.765625 L 4.671875 -2.421875 C 4.765625 -2.265625 4.796875 -2.203125 5.03125 -2.171875 C 5.546875 -2.09375 5.90625 -2.25 6.171875 -2.859375 C 6.640625 -4.125 7.140625 -4.890625 7.453125 -5.421875 C 7.5 -5.53125 7.640625 -5.515625 7.671875 -5.40625 L 9.40625 -0.171875 C 9.46875 0.046875 9.59375 0.171875 9.828125 0.171875 Z M 9.828125 0.171875 "/></g></g></g><g fill="#3d3b3a" fill-opacity="1"><g transform="translate(41.513242, 67.35003)"><g><path d="M 15.609375 0.203125 C 14.585938 0.203125 13.445312 0.148438 12.1875 0.046875 C 11.695312 0.015625 11.09375 -0.015625 10.375 -0.046875 C 9.65625 -0.0859375 8.859375 -0.109375 7.984375 -0.109375 L 4.515625 -0.046875 C 3.890625 -0.015625 3.015625 0 1.890625 0 C 1.816406 0 1.78125 -0.101562 1.78125 -0.3125 C 1.78125 -0.519531 1.816406 -0.625 1.890625 -0.625 C 3.253906 -0.625 4.257812 -0.710938 4.90625 -0.890625 C 5.5625 -1.066406 6.007812 -1.410156 6.25 -1.921875 C 6.5 -2.429688 6.625 -3.207031 6.625 -4.25 L 6.625 -28.578125 C 6.625 -29.628906 6.507812 -30.398438 6.28125 -30.890625 C 6.050781 -31.390625 5.613281 -31.734375 4.96875 -31.921875 C 4.320312 -32.117188 3.3125 -32.21875 1.9375 -32.21875 C 1.875 -32.21875 1.84375 -32.320312 1.84375 -32.53125 C 1.84375 -32.738281 1.875 -32.84375 1.9375 -32.84375 L 4.515625 -32.796875 C 5.984375 -32.722656 7.140625 -32.6875 7.984375 -32.6875 C 9.210938 -32.6875 10.457031 -32.738281 11.71875 -32.84375 C 13.257812 -32.914062 14.3125 -32.953125 14.875 -32.953125 C 18.550781 -32.953125 21.804688 -32.25 24.640625 -30.84375 C 27.484375 -29.445312 29.679688 -27.535156 31.234375 -25.109375 C 32.796875 -22.691406 33.578125 -19.976562 33.578125 -16.96875 C 33.578125 -13.570312 32.757812 -10.566406 31.125 -7.953125 C 29.5 -5.347656 27.320312 -3.335938 24.59375 -1.921875 C 21.863281 -0.503906 18.867188 0.203125 15.609375 0.203125 Z M 15.078125 -0.46875 C 18.023438 -0.46875 20.632812 -1.0625 22.90625 -2.25 C 25.1875 -3.445312 26.960938 -5.203125 28.234375 -7.515625 C 29.515625 -9.828125 30.15625 -12.59375 30.15625 -15.8125 C 30.15625 -18.894531 29.550781 -21.679688 28.34375 -24.171875 C 27.132812 -26.660156 25.398438 -28.628906 23.140625 -30.078125 C 20.878906 -31.535156 18.28125 -32.265625 15.34375 -32.265625 C 13.800781 -32.265625 12.617188 -32.175781 11.796875 -32 C 10.972656 -31.820312 10.367188 -31.460938 9.984375 -30.921875 C 9.597656 -30.378906 9.40625 -29.566406 9.40625 -28.484375 L 9.40625 -4.828125 C 9.40625 -3.785156 9.5625 -2.945312 9.875 -2.3125 C 10.195312 -1.675781 10.757812 -1.207031 11.5625 -0.90625 C 12.363281 -0.613281 13.535156 -0.46875 15.078125 -0.46875 Z M 15.078125 -0.46875 "/></g></g></g><g fill="#3d3b3a" fill-opacity="1"><g transform="translate(57.312388, 93.010257)"><g><path d="M 42.40625 -0.625 C 42.507812 -0.625 42.5625 -0.519531 42.5625 -0.3125 C 42.5625 -0.101562 42.507812 0 42.40625 0 C 41.320312 0 40.460938 -0.015625 39.828125 -0.046875 L 36.3125 -0.109375 L 33.046875 -0.046875 C 32.523438 -0.015625 31.789062 0 30.84375 0 C 30.769531 0 30.734375 -0.101562 30.734375 -0.3125 C 30.734375 -0.519531 30.769531 -0.625 30.84375 -0.625 C 32.070312 -0.625 32.972656 -0.71875 33.546875 -0.90625 C 34.128906 -1.101562 34.515625 -1.445312 34.703125 -1.9375 C 34.898438 -2.4375 34.960938 -3.207031 34.890625 -4.25 L 34 -28.6875 L 21.703125 -0.375 C 21.628906 -0.226562 21.488281 -0.15625 21.28125 -0.15625 C 21.101562 -0.15625 20.945312 -0.226562 20.8125 -0.375 L 7.984375 -28.484375 L 7.9375 -28.578125 L 7.515625 -5.46875 C 7.484375 -3.644531 7.78125 -2.378906 8.40625 -1.671875 C 9.039062 -0.972656 10.210938 -0.625 11.921875 -0.625 C 11.992188 -0.625 12.03125 -0.519531 12.03125 -0.3125 C 12.03125 -0.101562 11.992188 0 11.921875 0 C 10.941406 0 10.191406 -0.015625 9.671875 -0.046875 L 6.828125 -0.109375 L 4.25 -0.046875 C 3.800781 -0.015625 3.117188 0 2.203125 0 C 2.140625 0 2.109375 -0.101562 2.109375 -0.3125 C 2.109375 -0.519531 2.140625 -0.625 2.203125 -0.625 C 3.671875 -0.625 4.710938 -0.984375 5.328125 -1.703125 C 5.941406 -2.421875 6.269531 -3.675781 6.3125 -5.46875 L 6.828125 -30.375 C 5.742188 -31.601562 4.328125 -32.21875 2.578125 -32.21875 C 2.503906 -32.21875 2.46875 -32.320312 2.46875 -32.53125 C 2.46875 -32.738281 2.503906 -32.84375 2.578125 -32.84375 L 4.359375 -32.796875 C 4.710938 -32.753906 5.171875 -32.734375 5.734375 -32.734375 C 6.285156 -32.734375 6.753906 -32.75 7.140625 -32.78125 C 7.523438 -32.820312 7.828125 -32.84375 8.046875 -32.84375 C 8.535156 -32.84375 8.914062 -32.675781 9.1875 -32.34375 C 9.46875 -32.007812 9.890625 -31.265625 10.453125 -30.109375 L 22.28125 -4.578125 L 34.046875 -31.53125 C 34.222656 -31.914062 34.457031 -32.226562 34.75 -32.46875 C 35.050781 -32.71875 35.34375 -32.84375 35.625 -32.84375 C 35.769531 -32.84375 36 -32.820312 36.3125 -32.78125 C 36.625 -32.75 37.0625 -32.734375 37.625 -32.734375 L 39.984375 -32.796875 C 40.335938 -32.828125 40.882812 -32.84375 41.625 -32.84375 C 41.6875 -32.84375 41.71875 -32.738281 41.71875 -32.53125 C 41.71875 -32.320312 41.6875 -32.21875 41.625 -32.21875 C 39.800781 -32.21875 38.507812 -31.976562 37.75 -31.5 C 37 -31.03125 36.640625 -30.09375 36.671875 -28.6875 L 37.671875 -4.25 C 37.710938 -3.164062 37.84375 -2.378906 38.0625 -1.890625 C 38.289062 -1.398438 38.726562 -1.066406 39.375 -0.890625 C 40.03125 -0.710938 41.039062 -0.625 42.40625 -0.625 Z M 42.40625 -0.625 "/></g></g></g><g clip-path="url(#26f47e35f8)"><g clip-path="url(#32a715cd28)"><g clip-path="url(#3a8edf0e9b)"><path fill="#ffffff" d="M 71.355469 50.789062 L 79.253906 55.554688 L 61.398438 85.132812 L 53.503906 80.367188 Z M 71.355469 50.789062 " fill-opacity="1" fill-rule="nonzero"/></g></g></g><g clip-path="url(#19309ce3d3)"><g clip-path="url(#584bc0dac4)"><g clip-path="url(#4ad30a722d)"><path fill="#ffffff" d="M 60.953125 55.5 L 71.710938 61.992188 L 65.089844 72.960938 L 54.332031 66.46875 Z M 60.953125 55.5 " fill-opacity="1" fill-rule="nonzero"/></g></g></g><g clip-path="url(#2132a54df4)"><g clip-path="url(#8ffc2e289c)"><g clip-path="url(#b432fdae53)"><path fill="#ffffff" d="M 72.832031 56.667969 L 83.582031 63.15625 L 77.671875 72.949219 L 66.921875 66.460938 Z M 72.832031 56.667969 " fill-opacity="1" fill-rule="nonzero"/></g></g></g><path stroke-linecap="butt" transform="matrix(0.431053, -0.613753, 0.613753, 0.431053, 50.029642, 88.888583)" fill="none" stroke-linejoin="miter" d="M 0.000132469 1.001757 L 76.435416 0.997919 " stroke="#3d3b3a" stroke-width="2" stroke-opacity="1" stroke-miterlimit="4"/><g fill="#3d3b3a" fill-opacity="1"><g transform="translate(94.396316, 121.378083)"><g><path d="M 2.34375 -3.234375 C 2.625 -3.234375 2.835938 -3.15625 2.984375 -3 C 3.128906 -2.851562 3.203125 -2.640625 3.203125 -2.359375 C 3.203125 -2.273438 3.195312 -2.179688 3.1875 -2.078125 C 3.125 -1.710938 2.992188 -1.367188 2.796875 -1.046875 C 2.597656 -0.722656 2.351562 -0.460938 2.0625 -0.265625 C 1.78125 -0.078125 1.488281 0.015625 1.1875 0.015625 C 1.101562 0.015625 0.992188 0.00390625 0.859375 -0.015625 L 0.59375 1.46875 C 0.570312 1.59375 0.5625 1.671875 0.5625 1.703125 C 0.5625 1.785156 0.582031 1.84375 0.625 1.875 C 0.664062 1.914062 0.726562 1.9375 0.8125 1.9375 C 0.84375 1.9375 0.898438 1.929688 0.984375 1.921875 C 1.003906 1.921875 1.019531 1.929688 1.03125 1.953125 C 1.039062 1.984375 1.035156 2 1.015625 2 L -0.546875 2.265625 C -0.566406 2.265625 -0.578125 2.25 -0.578125 2.21875 C -0.585938 2.1875 -0.582031 2.164062 -0.5625 2.15625 C -0.457031 2.132812 -0.378906 2.101562 -0.328125 2.0625 C -0.273438 2.03125 -0.234375 1.972656 -0.203125 1.890625 C -0.179688 1.816406 -0.15625 1.691406 -0.125 1.515625 L 0.578125 -2.421875 C 0.460938 -2.347656 0.328125 -2.253906 0.171875 -2.140625 C 0.160156 -2.128906 0.148438 -2.125 0.140625 -2.125 C 0.117188 -2.125 0.101562 -2.132812 0.09375 -2.15625 C 0.0820312 -2.175781 0.0859375 -2.195312 0.109375 -2.21875 C 0.328125 -2.394531 0.492188 -2.519531 0.609375 -2.59375 L 0.71875 -3.171875 C 0.71875 -3.179688 0.765625 -3.210938 0.859375 -3.265625 C 1.003906 -3.359375 1.128906 -3.445312 1.234375 -3.53125 C 1.335938 -3.613281 1.40625 -3.707031 1.4375 -3.8125 C 1.445312 -3.832031 1.460938 -3.835938 1.484375 -3.828125 C 1.515625 -3.828125 1.53125 -3.816406 1.53125 -3.796875 L 1.390625 -3.015625 C 1.710938 -3.160156 2.03125 -3.234375 2.34375 -3.234375 Z M 2.4375 -1.8125 C 2.445312 -1.90625 2.453125 -1.976562 2.453125 -2.03125 C 2.453125 -2.269531 2.398438 -2.460938 2.296875 -2.609375 C 2.191406 -2.753906 2.019531 -2.828125 1.78125 -2.828125 C 1.625 -2.828125 1.476562 -2.804688 1.34375 -2.765625 L 0.921875 -0.359375 C 1.097656 -0.273438 1.289062 -0.234375 1.5 -0.234375 C 1.757812 -0.234375 1.960938 -0.375 2.109375 -0.65625 C 2.265625 -0.9375 2.375 -1.320312 2.4375 -1.8125 Z M 2.4375 -1.8125 "/></g></g></g><g fill="#3d3b3a" fill-opacity="1"><g transform="translate(100.193319, 121.378083)"><g><path d="M 1.296875 0.109375 C 0.929688 0.109375 0.65625 -0.00390625 0.46875 -0.234375 C 0.28125 -0.460938 0.1875 -0.765625 0.1875 -1.140625 C 0.1875 -1.304688 0.203125 -1.457031 0.234375 -1.59375 C 0.296875 -1.914062 0.414062 -2.207031 0.59375 -2.46875 C 0.769531 -2.726562 0.984375 -2.925781 1.234375 -3.0625 C 1.484375 -3.207031 1.753906 -3.28125 2.046875 -3.28125 C 2.410156 -3.28125 2.691406 -3.164062 2.890625 -2.9375 C 3.085938 -2.71875 3.1875 -2.425781 3.1875 -2.0625 C 3.1875 -1.90625 3.164062 -1.75 3.125 -1.59375 C 3.0625 -1.226562 2.929688 -0.914062 2.734375 -0.65625 C 2.546875 -0.40625 2.320312 -0.210938 2.0625 -0.078125 C 1.8125 0.046875 1.554688 0.109375 1.296875 0.109375 Z M 1.578125 -0.09375 C 1.753906 -0.09375 1.90625 -0.191406 2.03125 -0.390625 C 2.164062 -0.597656 2.257812 -0.875 2.3125 -1.21875 C 2.351562 -1.4375 2.375 -1.65625 2.375 -1.875 C 2.375 -2.226562 2.320312 -2.515625 2.21875 -2.734375 C 2.113281 -2.960938 1.96875 -3.078125 1.78125 -3.078125 C 1.613281 -3.078125 1.460938 -2.976562 1.328125 -2.78125 C 1.203125 -2.59375 1.109375 -2.3125 1.046875 -1.9375 C 1.003906 -1.726562 0.984375 -1.515625 0.984375 -1.296875 C 0.984375 -0.929688 1.035156 -0.640625 1.140625 -0.421875 C 1.242188 -0.203125 1.390625 -0.09375 1.578125 -0.09375 Z M 1.578125 -0.09375 "/></g></g></g><g fill="#3d3b3a" fill-opacity="1"><g transform="translate(106.014982, 121.378083)"><g><path d="M 2.4375 -3.25 C 2.582031 -3.25 2.71875 -3.195312 2.84375 -3.09375 C 2.976562 -2.988281 3.035156 -2.867188 3.015625 -2.734375 C 2.992188 -2.648438 2.953125 -2.570312 2.890625 -2.5 C 2.828125 -2.4375 2.742188 -2.40625 2.640625 -2.40625 C 2.546875 -2.40625 2.441406 -2.453125 2.328125 -2.546875 C 2.285156 -2.566406 2.242188 -2.585938 2.203125 -2.609375 C 2.171875 -2.628906 2.132812 -2.640625 2.09375 -2.640625 C 2 -2.640625 1.882812 -2.492188 1.75 -2.203125 C 1.613281 -1.921875 1.484375 -1.578125 1.359375 -1.171875 C 1.234375 -0.765625 1.144531 -0.410156 1.09375 -0.109375 L 1.09375 -0.09375 C 1.082031 -0.0507812 1.035156 -0.015625 0.953125 0.015625 C 0.878906 0.046875 0.773438 0.0625 0.640625 0.0625 C 0.453125 0.0625 0.359375 0.0390625 0.359375 0 C 0.367188 -0.0390625 0.382812 -0.125 0.40625 -0.25 C 0.4375 -0.375 0.46875 -0.492188 0.5 -0.609375 L 0.828125 -2.4375 C 0.835938 -2.53125 0.84375 -2.585938 0.84375 -2.609375 C 0.84375 -2.765625 0.796875 -2.84375 0.703125 -2.84375 C 0.585938 -2.84375 0.429688 -2.734375 0.234375 -2.515625 C 0.222656 -2.503906 0.210938 -2.5 0.203125 -2.5 C 0.179688 -2.5 0.164062 -2.507812 0.15625 -2.53125 C 0.144531 -2.550781 0.148438 -2.570312 0.171875 -2.59375 C 0.359375 -2.820312 0.53125 -2.988281 0.6875 -3.09375 C 0.84375 -3.195312 1.003906 -3.25 1.171875 -3.25 C 1.304688 -3.25 1.398438 -3.210938 1.453125 -3.140625 C 1.515625 -3.066406 1.546875 -2.957031 1.546875 -2.8125 C 1.546875 -2.726562 1.539062 -2.640625 1.53125 -2.546875 L 1.359375 -1.640625 C 1.679688 -2.710938 2.039062 -3.25 2.4375 -3.25 Z M 2.4375 -3.25 "/></g></g></g><g fill="#3d3b3a" fill-opacity="1"><g transform="translate(111.409244, 121.378083)"><g><path d="M 2.5 -3.171875 C 2.539062 -3.171875 2.5625 -3.144531 2.5625 -3.09375 C 2.5625 -3.050781 2.523438 -2.984375 2.453125 -2.890625 C 2.390625 -2.804688 2.332031 -2.765625 2.28125 -2.765625 C 2.269531 -2.765625 2.179688 -2.78125 2.015625 -2.8125 C 1.859375 -2.84375 1.675781 -2.863281 1.46875 -2.875 L 1.125 -0.90625 C 1.113281 -0.820312 1.109375 -0.765625 1.109375 -0.734375 C 1.109375 -0.597656 1.140625 -0.5 1.203125 -0.4375 C 1.273438 -0.382812 1.382812 -0.359375 1.53125 -0.359375 C 1.738281 -0.359375 1.96875 -0.457031 2.21875 -0.65625 L 2.234375 -0.65625 C 2.253906 -0.65625 2.269531 -0.644531 2.28125 -0.625 C 2.300781 -0.613281 2.300781 -0.597656 2.28125 -0.578125 C 2.03125 -0.335938 1.804688 -0.164062 1.609375 -0.0625 C 1.421875 0.0390625 1.226562 0.09375 1.03125 0.09375 C 0.59375 0.09375 0.375 -0.101562 0.375 -0.5 C 0.375 -0.582031 0.378906 -0.671875 0.390625 -0.765625 L 0.71875 -2.515625 C 0.726562 -2.609375 0.734375 -2.6875 0.734375 -2.75 C 0.734375 -2.832031 0.710938 -2.882812 0.671875 -2.90625 C 0.628906 -2.9375 0.550781 -2.953125 0.4375 -2.953125 C 0.414062 -2.953125 0.40625 -2.972656 0.40625 -3.015625 C 0.40625 -3.054688 0.414062 -3.078125 0.4375 -3.078125 C 0.875 -3.078125 1.222656 -3.320312 1.484375 -3.8125 C 1.492188 -3.820312 1.507812 -3.828125 1.53125 -3.828125 C 1.5625 -3.828125 1.585938 -3.820312 1.609375 -3.8125 C 1.628906 -3.800781 1.640625 -3.789062 1.640625 -3.78125 L 1.515625 -3.109375 C 1.671875 -3.109375 1.800781 -3.113281 1.90625 -3.125 C 2.019531 -3.132812 2.113281 -3.140625 2.1875 -3.140625 C 2.332031 -3.160156 2.4375 -3.171875 2.5 -3.171875 Z M 2.5 -3.171875 "/></g></g></g><g fill="#3d3b3a" fill-opacity="1"><g transform="translate(116.351448, 121.378083)"><g><path d="M 2.65625 -5.96875 C 2.882812 -5.96875 3.0625 -5.925781 3.1875 -5.84375 C 3.320312 -5.769531 3.390625 -5.671875 3.390625 -5.546875 C 3.390625 -5.421875 3.351562 -5.320312 3.28125 -5.25 C 3.207031 -5.1875 3.109375 -5.15625 2.984375 -5.15625 C 2.835938 -5.15625 2.738281 -5.1875 2.6875 -5.25 C 2.632812 -5.320312 2.597656 -5.421875 2.578125 -5.546875 C 2.566406 -5.628906 2.546875 -5.691406 2.515625 -5.734375 C 2.492188 -5.773438 2.457031 -5.796875 2.40625 -5.796875 C 2.226562 -5.796875 2.078125 -5.617188 1.953125 -5.265625 C 1.828125 -4.910156 1.710938 -4.359375 1.609375 -3.609375 L 1.53125 -3.125 C 1.75 -3.132812 1.90625 -3.144531 2 -3.15625 L 2.3125 -3.171875 C 2.332031 -3.171875 2.347656 -3.160156 2.359375 -3.140625 C 2.367188 -3.117188 2.367188 -3.097656 2.359375 -3.078125 C 2.347656 -3.015625 2.3125 -2.945312 2.25 -2.875 C 2.195312 -2.8125 2.148438 -2.78125 2.109375 -2.78125 C 2.097656 -2.78125 2.03125 -2.789062 1.90625 -2.8125 C 1.78125 -2.832031 1.644531 -2.851562 1.5 -2.875 L 1.046875 0.171875 C 0.960938 0.703125 0.863281 1.117188 0.75 1.421875 C 0.644531 1.722656 0.507812 1.9375 0.34375 2.0625 C 0.175781 2.195312 -0.03125 2.265625 -0.28125 2.265625 C -0.507812 2.265625 -0.6875 2.222656 -0.8125 2.140625 C -0.945312 2.054688 -1.015625 1.957031 -1.015625 1.84375 C -1.015625 1.71875 -0.976562 1.625 -0.90625 1.5625 C -0.832031 1.5 -0.742188 1.46875 -0.640625 1.46875 C -0.503906 1.46875 -0.410156 1.5 -0.359375 1.5625 C -0.316406 1.625 -0.285156 1.71875 -0.265625 1.84375 C -0.253906 1.9375 -0.238281 2 -0.21875 2.03125 C -0.195312 2.070312 -0.160156 2.09375 -0.109375 2.09375 C -0.0546875 2.09375 -0.015625 2.050781 0.015625 1.96875 C 0.0546875 1.882812 0.0976562 1.734375 0.140625 1.515625 C 0.179688 1.296875 0.242188 0.921875 0.328125 0.390625 L 0.734375 -2.515625 C 0.742188 -2.578125 0.75 -2.648438 0.75 -2.734375 C 0.75 -2.828125 0.722656 -2.882812 0.671875 -2.90625 C 0.617188 -2.9375 0.507812 -2.953125 0.34375 -2.953125 C 0.320312 -2.953125 0.3125 -2.972656 0.3125 -3.015625 C 0.3125 -3.054688 0.320312 -3.078125 0.34375 -3.078125 C 0.519531 -3.078125 0.644531 -3.101562 0.71875 -3.15625 C 0.800781 -3.207031 0.851562 -3.300781 0.875 -3.4375 C 0.976562 -4.113281 1.101562 -4.628906 1.25 -4.984375 C 1.394531 -5.335938 1.578125 -5.585938 1.796875 -5.734375 C 2.015625 -5.890625 2.300781 -5.96875 2.65625 -5.96875 Z M 2.65625 -5.96875 "/></g></g></g><g fill="#3d3b3a" fill-opacity="1"><g transform="translate(121.022416, 121.378083)"><g><path d="M 1.296875 0.109375 C 0.929688 0.109375 0.65625 -0.00390625 0.46875 -0.234375 C 0.28125 -0.460938 0.1875 -0.765625 0.1875 -1.140625 C 0.1875 -1.304688 0.203125 -1.457031 0.234375 -1.59375 C 0.296875 -1.914062 0.414062 -2.207031 0.59375 -2.46875 C 0.769531 -2.726562 0.984375 -2.925781 1.234375 -3.0625 C 1.484375 -3.207031 1.753906 -3.28125 2.046875 -3.28125 C 2.410156 -3.28125 2.691406 -3.164062 2.890625 -2.9375 C 3.085938 -2.71875 3.1875 -2.425781 3.1875 -2.0625 C 3.1875 -1.90625 3.164062 -1.75 3.125 -1.59375 C 3.0625 -1.226562 2.929688 -0.914062 2.734375 -0.65625 C 2.546875 -0.40625 2.320312 -0.210938 2.0625 -0.078125 C 1.8125 0.046875 1.554688 0.109375 1.296875 0.109375 Z M 1.578125 -0.09375 C 1.753906 -0.09375 1.90625 -0.191406 2.03125 -0.390625 C 2.164062 -0.597656 2.257812 -0.875 2.3125 -1.21875 C 2.351562 -1.4375 2.375 -1.65625 2.375 -1.875 C 2.375 -2.226562 2.320312 -2.515625 2.21875 -2.734375 C 2.113281 -2.960938 1.96875 -3.078125 1.78125 -3.078125 C 1.613281 -3.078125 1.460938 -2.976562 1.328125 -2.78125 C 1.203125 -2.59375 1.109375 -2.3125 1.046875 -1.9375 C 1.003906 -1.726562 0.984375 -1.515625 0.984375 -1.296875 C 0.984375 -0.929688 1.035156 -0.640625 1.140625 -0.421875 C 1.242188 -0.203125 1.390625 -0.09375 1.578125 -0.09375 Z M 1.578125 -0.09375 "/></g></g></g><g fill="#3d3b3a" fill-opacity="1"><g transform="translate(126.84408, 121.378083)"><g><path d="M 0.765625 0.078125 C 0.503906 0.078125 0.375 -0.078125 0.375 -0.390625 C 0.375 -0.503906 0.382812 -0.617188 0.40625 -0.734375 L 1.171875 -4.84375 C 1.179688 -4.945312 1.1875 -5.035156 1.1875 -5.109375 C 1.1875 -5.265625 1.132812 -5.34375 1.03125 -5.34375 C 0.96875 -5.34375 0.851562 -5.304688 0.6875 -5.234375 C 0.65625 -5.234375 0.632812 -5.25 0.625 -5.28125 C 0.625 -5.3125 0.632812 -5.328125 0.65625 -5.328125 L 1.9375 -5.953125 L 1.953125 -5.953125 C 1.972656 -5.953125 1.988281 -5.941406 2 -5.921875 C 2.019531 -5.910156 2.03125 -5.898438 2.03125 -5.890625 L 1.109375 -0.734375 C 1.085938 -0.648438 1.078125 -0.582031 1.078125 -0.53125 C 1.078125 -0.40625 1.117188 -0.34375 1.203125 -0.34375 C 1.265625 -0.34375 1.328125 -0.367188 1.390625 -0.421875 C 1.460938 -0.472656 1.546875 -0.546875 1.640625 -0.640625 C 1.648438 -0.648438 1.660156 -0.65625 1.671875 -0.65625 C 1.691406 -0.65625 1.707031 -0.644531 1.71875 -0.625 C 1.726562 -0.601562 1.722656 -0.582031 1.703125 -0.5625 C 1.523438 -0.34375 1.363281 -0.179688 1.21875 -0.078125 C 1.070312 0.0234375 0.921875 0.078125 0.765625 0.078125 Z M 0.765625 0.078125 "/></g></g></g><g fill="#3d3b3a" fill-opacity="1"><g transform="translate(131.342439, 121.378083)"><g><path d="M 1.421875 -4.09375 C 1.273438 -4.09375 1.160156 -4.132812 1.078125 -4.21875 C 0.992188 -4.3125 0.953125 -4.429688 0.953125 -4.578125 C 0.953125 -4.710938 0.992188 -4.816406 1.078125 -4.890625 C 1.160156 -4.972656 1.273438 -5.015625 1.421875 -5.015625 C 1.566406 -5.015625 1.675781 -4.972656 1.75 -4.890625 C 1.832031 -4.816406 1.875 -4.710938 1.875 -4.578125 C 1.875 -4.421875 1.832031 -4.300781 1.75 -4.21875 C 1.675781 -4.132812 1.566406 -4.09375 1.421875 -4.09375 Z M 0.875 0.078125 C 0.613281 0.078125 0.484375 -0.078125 0.484375 -0.390625 C 0.484375 -0.472656 0.492188 -0.585938 0.515625 -0.734375 L 0.859375 -2.4375 C 0.867188 -2.519531 0.875 -2.582031 0.875 -2.625 C 0.875 -2.695312 0.859375 -2.75 0.828125 -2.78125 C 0.804688 -2.820312 0.773438 -2.84375 0.734375 -2.84375 C 0.617188 -2.84375 0.460938 -2.734375 0.265625 -2.515625 C 0.253906 -2.503906 0.242188 -2.5 0.234375 -2.5 C 0.210938 -2.5 0.195312 -2.507812 0.1875 -2.53125 C 0.175781 -2.550781 0.175781 -2.570312 0.1875 -2.59375 C 0.382812 -2.820312 0.5625 -2.988281 0.71875 -3.09375 C 0.882812 -3.195312 1.039062 -3.25 1.1875 -3.25 C 1.457031 -3.25 1.59375 -3.101562 1.59375 -2.8125 C 1.59375 -2.71875 1.578125 -2.628906 1.546875 -2.546875 L 1.203125 -0.734375 C 1.191406 -0.679688 1.1875 -0.617188 1.1875 -0.546875 C 1.1875 -0.410156 1.226562 -0.34375 1.3125 -0.34375 C 1.363281 -0.34375 1.425781 -0.367188 1.5 -0.421875 C 1.570312 -0.472656 1.65625 -0.546875 1.75 -0.640625 C 1.757812 -0.648438 1.769531 -0.65625 1.78125 -0.65625 C 1.800781 -0.65625 1.816406 -0.644531 1.828125 -0.625 C 1.835938 -0.601562 1.832031 -0.582031 1.8125 -0.5625 C 1.625 -0.34375 1.457031 -0.179688 1.3125 -0.078125 C 1.164062 0.0234375 1.019531 0.078125 0.875 0.078125 Z M 0.875 0.078125 "/></g></g></g><g fill="#3d3b3a" fill-opacity="1"><g transform="translate(135.840798, 121.378083)"><g><path d="M 1.296875 0.109375 C 0.929688 0.109375 0.65625 -0.00390625 0.46875 -0.234375 C 0.28125 -0.460938 0.1875 -0.765625 0.1875 -1.140625 C 0.1875 -1.304688 0.203125 -1.457031 0.234375 -1.59375 C 0.296875 -1.914062 0.414062 -2.207031 0.59375 -2.46875 C 0.769531 -2.726562 0.984375 -2.925781 1.234375 -3.0625 C 1.484375 -3.207031 1.753906 -3.28125 2.046875 -3.28125 C 2.410156 -3.28125 2.691406 -3.164062 2.890625 -2.9375 C 3.085938 -2.71875 3.1875 -2.425781 3.1875 -2.0625 C 3.1875 -1.90625 3.164062 -1.75 3.125 -1.59375 C 3.0625 -1.226562 2.929688 -0.914062 2.734375 -0.65625 C 2.546875 -0.40625 2.320312 -0.210938 2.0625 -0.078125 C 1.8125 0.046875 1.554688 0.109375 1.296875 0.109375 Z M 1.578125 -0.09375 C 1.753906 -0.09375 1.90625 -0.191406 2.03125 -0.390625 C 2.164062 -0.597656 2.257812 -0.875 2.3125 -1.21875 C 2.351562 -1.4375 2.375 -1.65625 2.375 -1.875 C 2.375 -2.226562 2.320312 -2.515625 2.21875 -2.734375 C 2.113281 -2.960938 1.96875 -3.078125 1.78125 -3.078125 C 1.613281 -3.078125 1.460938 -2.976562 1.328125 -2.78125 C 1.203125 -2.59375 1.109375 -2.3125 1.046875 -1.9375 C 1.003906 -1.726562 0.984375 -1.515625 0.984375 -1.296875 C 0.984375 -0.929688 1.035156 -0.640625 1.140625 -0.421875 C 1.242188 -0.203125 1.390625 -0.09375 1.578125 -0.09375 Z M 1.578125 -0.09375 "/></g></g></g></svg>